<?xml version="1.0" standalone="no"?>
<svg xmlns:xlink="http://www.w3.org/1999/xlink" id="wave" style="transform:rotate(0deg); transition: 0.3s" viewBox="0 0 1440 260" version="1.1" xmlns="http://www.w3.org/2000/svg"><defs><linearGradient id="sw-gradient-0" x1="0" x2="0" y1="1" y2="0"><stop stop-color="rgba(243, 106, 62, 1)" offset="0%"/><stop stop-color="rgba(175.73, 121.783, 2.53, 1)" offset="100%"/></linearGradient></defs><path style="transform:translate(0, 0px); opacity:1" fill="url(#sw-gradient-0)" d="M0,182L34.3,177.7C68.6,173,137,165,206,143C274.3,121,343,87,411,91C480,95,549,139,617,130C685.7,121,754,61,823,34.7C891.4,9,960,17,1029,39C1097.1,61,1166,95,1234,125.7C1302.9,156,1371,182,1440,173.3C1508.6,165,1577,121,1646,91C1714.3,61,1783,43,1851,39C1920,35,1989,43,2057,69.3C2125.7,95,2194,139,2263,143C2331.4,147,2400,113,2469,117C2537.1,121,2606,165,2674,151.7C2742.9,139,2811,69,2880,65C2948.6,61,3017,121,3086,151.7C3154.3,182,3223,182,3291,169C3360,156,3429,130,3497,117C3565.7,104,3634,104,3703,121.3C3771.4,139,3840,173,3909,177.7C3977.1,182,4046,156,4114,130C4182.9,104,4251,78,4320,73.7C4388.6,69,4457,87,4526,78C4594.3,69,4663,35,4731,26C4800,17,4869,35,4903,43.3L4937.1,52L4937.1,260L4902.9,260C4868.6,260,4800,260,4731,260C4662.9,260,4594,260,4526,260C4457.1,260,4389,260,4320,260C4251.4,260,4183,260,4114,260C4045.7,260,3977,260,3909,260C3840,260,3771,260,3703,260C3634.3,260,3566,260,3497,260C3428.6,260,3360,260,3291,260C3222.9,260,3154,260,3086,260C3017.1,260,2949,260,2880,260C2811.4,260,2743,260,2674,260C2605.7,260,2537,260,2469,260C2400,260,2331,260,2263,260C2194.3,260,2126,260,2057,260C1988.6,260,1920,260,1851,260C1782.9,260,1714,260,1646,260C1577.1,260,1509,260,1440,260C1371.4,260,1303,260,1234,260C1165.7,260,1097,260,1029,260C960,260,891,260,823,260C754.3,260,686,260,617,260C548.6,260,480,260,411,260C342.9,260,274,260,206,260C137.1,260,69,260,34,260L0,260Z"/></svg>